<?xml version="1.0" encoding="UTF-8"?>
<svg version="1.1" xmlns="http://www.w3.org/2000/svg" width="649" height="150">
<path d="M0 0 C74.58 0 149.16 0 226 0 C226 42.57 226 85.14 226 129 C151.42 129 76.84 129 0 129 C0 86.43 0 43.86 0 0 Z M11 11 C11 33.77 11 56.54 11 80 C20.3121875 80.061875 20.3121875 80.061875 29.8125 80.125 C32.74733276 80.15231201 32.74733276 80.15231201 35.74145508 80.18017578 C37.29247768 80.18601708 38.84350334 80.1911135 40.39453125 80.1953125 C41.19967163 80.20554443 42.00481201 80.21577637 42.83435059 80.22631836 C46.74946506 80.22754548 48.66629773 80.22246818 52 78 C55.83693587 77.58142518 58.11203064 77.45355731 61.4375 79.5 C63.63828902 83.02126244 63.80414661 85.95439643 63 90 C61.4375 92.5 61.4375 92.5 59 94 C54.59796571 94.46337203 52.7205836 94.48038907 49 92 C46.09815132 91.82792072 43.29455753 91.76798896 40.39453125 91.8046875 C39.55532639 91.8075174 38.71612152 91.81034729 37.85148621 91.81326294 C35.17167897 91.82445615 32.49220619 91.84955899 29.8125 91.875 C27.99544754 91.88503092 26.17838983 91.89415657 24.36132812 91.90234375 C19.90731962 91.92269098 15.45403411 91.96184074 11 92 C11 100.58 11 109.16 11 118 C39.38 118 67.76 118 97 118 C97 95.89 97 73.78 97 51 C91.493125 50.938125 85.98625 50.87625 80.3125 50.8125 C78.58298096 50.78518799 76.85346191 50.75787598 75.0715332 50.72973633 C73.68962297 50.72096856 72.30770496 50.71332531 70.92578125 50.70703125 C70.21723999 50.69168335 69.50869873 50.67633545 68.77868652 50.66052246 C64.27901639 50.65815712 61.66801275 51.42732279 58 54 C55.12511963 54.38437045 52.70689122 54.0442533 50 53 C47.875 50.375 47.875 50.375 47 47 C47.70987589 43.12794968 48.19876557 40.80123443 51 38 C53.09375 37.734375 53.09375 37.734375 55.5 37.75 C56.2940625 37.74484375 57.088125 37.7396875 57.90625 37.734375 C60 38 60 38 62 40 C64.65291757 40.17510386 67.19986174 40.23155483 69.8515625 40.1953125 C71.01261002 40.19106766 71.01261002 40.19106766 72.19711304 40.18673706 C74.67323157 40.17552754 77.1489905 40.15042203 79.625 40.125 C81.30207812 40.11497118 82.97916189 40.10584516 84.65625 40.09765625 C88.77108387 40.07728579 92.88513866 40.03813981 97 40 C97 30.43 97 20.86 97 11 C68.62 11 40.24 11 11 11 Z M108 11 C108 46.31 108 81.62 108 118 C123.84 118 139.68 118 156 118 C156.04125 113.771875 156.0825 109.54375 156.125 105.1875 C156.14320801 103.8574292 156.16141602 102.5273584 156.18017578 101.15698242 C156.1851709 100.10873291 156.19016602 99.0604834 156.1953125 97.98046875 C156.20578613 96.90692139 156.21625977 95.83337402 156.22705078 94.72729492 C156.20315543 91.78066259 156.20315543 91.78066259 154 89 C153.78043467 85.56014312 153.68480441 82.22820736 155 79 C157.67643957 78.10785348 159.25384378 77.86459789 162 77.875 C162.680625 77.87242188 163.36125 77.86984375 164.0625 77.8671875 C166 78 166 78 169 79 C169.8814688 81.64440639 170.16174818 83.28060752 170.1875 86 C170.20167969 86.680625 170.21585938 87.36125 170.23046875 88.0625 C170 90 170 90 168 93 C167.72374906 95.71378472 167.72374906 95.71378472 167.8046875 98.76171875 C167.80968262 99.76936279 167.81467773 100.77700684 167.81982422 101.81518555 C167.83803223 103.09304932 167.85624023 104.37091309 167.875 105.6875 C167.91625 109.750625 167.9575 113.81375 168 118 C183.18 118 198.36 118 214 118 C214 82.69 214 47.38 214 11 C205.09 11 196.18 11 187 11 C187 20.24 187 29.48 187 39 C187.66 39 188.32 39 189 39 C190.44395508 46.98524554 190.44395508 46.98524554 188.6875 51 C187 53 187 53 185 54 C178.18214286 54.29642857 178.18214286 54.29642857 175 53 C174.1185312 50.35559361 173.83825182 48.71939248 173.8125 46 C173.79832031 45.319375 173.78414063 44.63875 173.76953125 43.9375 C174 42 174 42 176 39 C176.27691055 35.99294595 176.27691055 35.99294595 176.1953125 32.58203125 C176.19031738 31.4525708 176.18532227 30.32311035 176.18017578 29.15942383 C176.16196777 27.72493896 176.14375977 26.2904541 176.125 24.8125 C176.08375 20.254375 176.0425 15.69625 176 11 C166.76 11 157.52 11 148 11 C147.95875 15.558125 147.9175 20.11625 147.875 24.8125 C147.85679199 26.24698486 147.83858398 27.68146973 147.81982422 29.15942383 C147.8148291 30.28888428 147.80983398 31.41834473 147.8046875 32.58203125 C147.79421387 33.73936768 147.78374023 34.8967041 147.77294922 36.08911133 C147.77680137 39.19421173 147.77680137 39.19421173 150 42 C150.53955608 45.47558203 150.6487882 48.81691564 148.9375 51.9375 C145.92563699 53.58916681 143.41790842 53.88214109 140 54 C137.125 53 137.125 53 135 51 C134 47.625 134 47.625 134 44 C134.48895752 43.2366333 134.97791504 42.4732666 135.48168945 41.68676758 C137.36449179 38.35500368 137.3451268 36.19425604 137.29296875 32.38671875 C137.28547607 31.26225342 137.2779834 30.13778809 137.27026367 28.97924805 C137.24295166 27.56297119 137.21563965 26.14669434 137.1875 24.6875 C137.125625 20.170625 137.06375 15.65375 137 11 C127.43 11 117.86 11 108 11 Z M52 43 C52 44.65 52 46.3 52 48 C53.98 48.99 53.98 48.99 56 50 C56.99 49.34 57.98 48.68 59 48 C58.67 46.35 58.34 44.7 58 43 C54.95086772 41.98888907 54.95086772 41.98888907 52 43 Z M140 42 C139.34 43.32 138.68 44.64 138 46 C139.32 47.32 140.64 48.64 142 50 C143.32 49.34 144.64 48.68 146 48 C145.67 46.35 145.34 44.7 145 43 C143.35 42.67 141.7 42.34 140 42 Z M180 42 C179.34 42.66 178.68 43.32 178 44 C178.32041397 46.60280568 178.32041397 46.60280568 179 49 C180.83700789 49.77242269 180.83700789 49.77242269 183 50 C184.77190909 48.64555699 184.77190909 48.64555699 186 47 C185.34 45.35 184.68 43.7 184 42 C182.68 42 181.36 42 180 42 Z M54 82 C53.34 82.66 52.68 83.32 52 84 C52.32041397 86.60280568 52.32041397 86.60280568 53 89 C54.89179203 89.6814823 54.89179203 89.6814823 57 90 C57.66 89.34 58.32 88.68 59 88 C58.67958603 85.39719432 58.67958603 85.39719432 58 83 C56.10820797 82.3185177 56.10820797 82.3185177 54 82 Z M159.1875 83.1875 C157.74709672 84.95054109 157.74709672 84.95054109 158.3125 87.1875 C158.539375 87.785625 158.76625 88.38375 159 89 C160.83700789 89.77242269 160.83700789 89.77242269 163 90 C164.91666667 88.91666667 164.91666667 88.91666667 166 87 C165.77242269 84.83700789 165.77242269 84.83700789 165 83 C161.99251085 81.84137694 161.99251085 81.84137694 159.1875 83.1875 Z " fill="#E02127" transform="translate(10,9)"/>
<path d="M0 0 C-1.2491742 3.45925163 -2.67527795 6.14693203 -5 9 C-8.12743447 8.52614629 -10.47754641 7.7789137 -13.375 6.4375 C-17.2785169 4.88955364 -19.84338102 4.52039012 -24 5 C-25.94369738 6.35429841 -25.94369738 6.35429841 -27 8 C-23.90815837 12.1184763 -18.77929121 12.72804195 -14.06835938 14.01757812 C-8.55438152 15.61142205 -4.00953747 17.7225242 -0.125 22.125 C1.56462699 26.44293564 1.66060252 30.42716257 1 35 C-1.21242439 39.42484878 -3.94799616 42.19476657 -8 45 C-15.34727196 47.44909065 -26.16525968 47.32414483 -33.3125 44.1875 C-36.04914985 42.69719262 -38.64298981 41.04957407 -41 39 C-40.38545304 35.00544473 -38.29353263 32.25533664 -36 29 C-35.15501953 29.42732422 -35.15501953 29.42732422 -34.29296875 29.86328125 C-26.67468392 33.63997782 -21.5287999 35.65073546 -13 34 C-12.67 32.35 -12.34 30.7 -12 29 C-13.59328125 28.52820313 -13.59328125 28.52820313 -15.21875 28.046875 C-35.16944593 22.05459151 -35.16944593 22.05459151 -38.5625 16.3125 C-40.46625537 11.74858645 -40.49661891 7.69868727 -39 3 C-36.48498535 -1.59089975 -32.84211008 -4.15999817 -28 -6 C-18.05823831 -8.63761024 -8.05667197 -6.00301049 0 0 Z " fill="#E12127" transform="translate(312,52)"/>
<path d="M0 0 C3.63 0 7.26 0 11 0 C12.98 6.6 14.96 13.2 17 20 C19.73472115 13.39894894 22.03715964 6.86994125 24 0 C27.3 0 30.6 0 34 0 C37.00442075 6.45950461 38.97912498 13.17826451 41 20 C43.18781834 14.47836324 44.87928698 8.97719553 46.3515625 3.22265625 C47 1 47 1 48 0 C51.66655195 -0.14300125 55.33144219 -0.04216733 59 0 C56.98354532 8.55324949 54.5389685 16.8980332 51.8125 25.25 C51.44447266 26.38824219 51.07644531 27.52648437 50.69726562 28.69921875 C49.80171247 31.46729213 48.90136561 34.23381386 48 37 C44.04 37 40.08 37 36 37 C35.57847656 35.64003906 35.15695312 34.28007813 34.72265625 32.87890625 C34.16943405 31.10671987 33.61603975 29.33458721 33.0625 27.5625 C32.78470703 26.66466797 32.50691406 25.76683594 32.22070312 24.84179688 C31.95322266 23.98779297 31.68574219 23.13378906 31.41015625 22.25390625 C31.16402588 21.46314697 30.91789551 20.6723877 30.66430664 19.85766602 C30.15313949 18.01056692 30.15313949 18.01056692 29 17 C27.02 23.6 25.04 30.2 23 37 C19.04 37 15.08 37 11 37 C8.26286172 29.99741594 6.02103324 22.87222207 3.8125 15.6875 C3.44447266 14.50865234 3.07644531 13.32980469 2.69726562 12.11523438 C2.34986328 10.98794922 2.00246094 9.86066406 1.64453125 8.69921875 C1.32846924 7.67658936 1.01240723 6.65395996 0.68676758 5.6003418 C0 3 0 3 0 0 Z " fill="#E12127" transform="translate(498,60)"/>
<path d="M0 0 C3.63 0 7.26 0 11 0 C11 16.83 11 33.66 11 51 C7.37 51 3.74 51 0 51 C-0.33 50.34 -0.66 49.68 -1 49 C-1.55042969 49.48597656 -2.10085938 49.97195312 -2.66796875 50.47265625 C-6.7944452 53.17525641 -11.24443964 52.58602514 -16 52 C-20.24248376 50.76455143 -23.12263284 48.37058366 -25.4375 44.625 C-28.239671 38.14725405 -28.2033666 30.1828251 -26.26953125 23.4609375 C-24.09161215 18.7139628 -21.08424257 15.23369703 -16.125 13.25 C-9.71127541 12.49544417 -7.0319638 12.9840181 -1 16 C-0.67 10.72 -0.34 5.44 0 0 Z M-13.9375 24.9375 C-16.70424542 29.04569775 -16.93412598 32.18095755 -16 37 C-14.06078778 40.58008409 -12.91075996 41.68995406 -9.0625 43 C-5.44353771 43 -3.8713807 42.13302566 -1 40 C0.874035 38.125965 0.25989078 35.13362936 0.3125 32.625 C0.34988281 31.46226563 0.38726562 30.29953125 0.42578125 29.1015625 C0.3019357 25.94604836 0.3019357 25.94604836 -1.8046875 24.1171875 C-6.31764605 21.82055735 -9.77525243 22.19218778 -13.9375 24.9375 Z " fill="#E02127" transform="translate(465,46)"/>
<path d="M0 0 C3.3 0 6.6 0 10 0 C10.33 5.28 10.66 10.56 11 16 C13.31 15.01 15.62 14.02 18 13 C23.25560805 12.4467781 26.56658316 13.10864119 31 16 C36.17895578 21.10915853 37.26887938 25.58875959 37.375 32.6875 C37.4130358 38.44508795 37.08524299 42.96055381 33.40234375 47.58203125 C29.58597587 51.44092133 26.87022604 52.18783395 21.5 52.375 C17.22376173 52.27112377 14.39593285 51.81042719 11 49 C10.67 49.66 10.34 50.32 10 51 C6.7 51 3.4 51 0 51 C0 34.17 0 17.34 0 0 Z M10 27 C8.91911499 34.23815106 8.91911499 34.23815106 11.31640625 40.8203125 C14.07450773 42.75290333 16.69578315 42.82609385 20 43 C22.33333333 42.66666667 22.33333333 42.66666667 24 41 C25.96854587 37.47019361 27 34.93344247 27 30.875 C25.69502812 27.12320584 24.16347801 25.39018338 21 23 C16.0587369 22.07351317 13.08598841 23.00636794 10 27 Z " fill="#E12127" transform="translate(602,46)"/>
<path d="M0 0 C4.01213555 4.01213555 4.89287012 7.29871434 5.11352539 12.86254883 C5.10828857 13.88372803 5.10305176 14.90490723 5.09765625 15.95703125 C5.09443359 17.06884766 5.09121094 18.18066406 5.08789062 19.32617188 C5.07532227 21.0519043 5.07532227 21.0519043 5.0625 22.8125 C5.05798828 23.98232422 5.05347656 25.15214844 5.04882812 26.35742188 C5.0370693 29.23833358 5.02063426 32.11914044 5 35 C0.33333333 35 -4.33333333 35 -9 35 C-9.99 35.495 -9.99 35.495 -11 36 C-16.33842242 36.53209766 -20.69597371 36.64057432 -25.5625 34.25 C-28.39090726 31.63916253 -29.71439039 29.65352932 -30.37109375 25.8515625 C-30.4973398 21.61860669 -30.37350209 18.85657778 -27.625 15.5 C-23.90954634 11.96147271 -22.15876327 11.84326872 -17.125 11.8125 C-16.07570313 11.79832031 -15.02640625 11.78414062 -13.9453125 11.76953125 C-11.06452929 11.99495063 -9.43759792 12.51035683 -7 14 C-7.18828772 11.55519921 -7.18828772 11.55519921 -8 9 C-10.23393263 7.46787806 -11.50034637 6.96129444 -14.21875 7.171875 C-14.9715625 7.36265625 -15.724375 7.5534375 -16.5 7.75 C-17.2528125 7.93046875 -18.005625 8.1109375 -18.78125 8.296875 C-20.99978224 8.99993099 -22.9520486 9.90155334 -25 11 C-28 5.375 -28 5.375 -28 2 C-19.00268644 -3.4689553 -9.64924301 -5.48682446 0 0 Z M-19 21 C-19.2502157 24.08365871 -19.2502157 24.08365871 -19 27 C-16.1778917 28.91903365 -14.87098068 28.99110212 -11.375 28.75 C-7.94727116 28.30518815 -7.94727116 28.30518815 -6 26 C-6.09111938 23.46048456 -6.09111938 23.46048456 -7 21 C-11.43229352 18.04513765 -14.56770648 18.04513765 -19 21 Z " fill="#E02127" transform="translate(384,62)"/>
<path d="M0 0 C4.23949257 3.46867574 6.32246698 6.79081852 8 12 C8 14.64 8 17.28 8 20 C-0.58 20.33 -9.16 20.66 -18 21 C-14.78266319 26.07929814 -14.78266319 26.07929814 -11.59765625 26.55859375 C-5.0797629 26.26947764 -5.0797629 26.26947764 1 24 C4.93786982 28.29585799 4.93786982 28.29585799 5.1875 31.125 C3.16912392 34.3119096 0.52428831 35.20419296 -3 36 C-10.45346067 36.81246254 -17.25496016 37.16890583 -23.44921875 32.5 C-28.00003179 28.09820602 -30.1260247 23.56432991 -30.3125 17.3125 C-30.23429831 11.35179376 -28.65721605 6.86105728 -24.57421875 2.46484375 C-16.99816463 -4.24985022 -8.75265806 -4.78919026 0 0 Z M-17 8 C-17.66 9.65 -18.32 11.3 -19 13 C-13.39 13 -7.78 13 -2 13 C-4.50056593 8.02378257 -4.50056593 8.02378257 -8 6 C-11.55396705 5.63549056 -14.07492952 5.88184551 -17 8 Z " fill="#E02127" transform="translate(588,62)"/>
<path d="M0 0 C3.07181148 4.03603283 3.35688476 7.0440275 3.29296875 12.05078125 C3.28872391 12.70958786 3.28447906 13.36839447 3.28010559 14.04716492 C3.26341196 16.13603885 3.22578058 18.22392139 3.1875 20.3125 C3.17244097 21.73501203 3.15875469 23.1575393 3.14648438 24.58007812 C3.11354003 28.05370351 3.06182408 31.52675487 3 35 C-0.63 35 -4.26 35 -8 35 C-8.33 26.09 -8.66 17.18 -9 8 C-16.24576415 7.43427223 -16.24576415 7.43427223 -19.46191406 9.15356445 C-21.55328813 11.66420923 -21.54066622 13.29647866 -21.609375 16.54296875 C-21.64160156 17.61611328 -21.67382812 18.68925781 -21.70703125 19.79492188 C-21.72830078 21.47424805 -21.72830078 21.47424805 -21.75 23.1875 C-21.77964844 24.31865234 -21.80929687 25.44980469 -21.83984375 26.61523438 C-21.91060309 29.41022833 -21.96326976 32.20438528 -22 35 C-25.3 35 -28.6 35 -32 35 C-32 22.79 -32 10.58 -32 -2 C-28.7 -2 -25.4 -2 -22 -2 C-21.67 -1.01 -21.34 -0.02 -21 1 C-20.13375 0.2884375 -20.13375 0.2884375 -19.25 -0.4375 C-13.24839647 -4.60528023 -5.97503972 -3.93809436 0 0 Z " fill="#E02127" transform="translate(429,62)"/>
<path d="M0 0 C1.73046875 1.60546875 1.73046875 1.60546875 3 3 C1.50902342 6.7952131 -0.75700849 8.61042731 -4 11 C-4.515625 10.505 -5.03125 10.01 -5.5625 9.5 C-8.9238388 7.43148382 -11.11959911 7.51494989 -15 8 C-18.0122698 10.06102671 -18.83432797 11.44381532 -19.875 14.9375 C-20.05084654 19.24574029 -19.19148662 21.67612598 -16.3125 24.875 C-12.93232378 26.51941006 -10.58115477 25.86212985 -7 25 C-6.34 24.34 -5.68 23.68 -5 23 C-2.17331426 23.18844572 -0.93080185 24.05423639 1.3125 25.8125 C3 28 3 28 3.1875 30 C1.19564326 33.35470608 -1.393673 34.83763014 -5 36 C-11.64014022 36.75062455 -18.46308649 37.1864468 -24 33 C-30.33423319 26.5156665 -31.35611856 22.63941638 -31.28125 13.49609375 C-30.80968962 7.63433622 -28.84268235 4.79419071 -24.625 0.6875 C-16.78105786 -4.35503423 -8.11613244 -4.37299376 0 0 Z " fill="#E12127" transform="translate(348,62)"/>
<path d="M0 0 C3.3 0 6.6 0 10 0 C10 12.21 10 24.42 10 37 C6.7 37 3.4 37 0 37 C0 24.79 0 12.58 0 0 Z " fill="#E02127" transform="translate(484,60)"/>
<path d="M0 0 C1.875 1.125 1.875 1.125 3 3 C3.39365568 6.14924548 3.52854531 8.11909116 1.875 10.875 C-0.88090884 12.52854531 -2.85075452 12.39365568 -6 12 C-7.875 10.875 -7.875 10.875 -9 9 C-9.39365568 5.85075452 -9.52854531 3.88090884 -7.875 1.125 C-5.11909116 -0.52854531 -3.14924548 -0.39365568 0 0 Z " fill="#E02127" transform="translate(492,45)"/>
</svg>
